<svg width="100" height="100" viewBox="0 0 100 100" fill="none" xmlns="http://www.w3.org/2000/svg">
<path d="M64.8167 60.6167L62.9208 62.6167C62.9208 62.6167 58.4083 67.3625 46.0958 54.4C33.7833 41.4375 38.2958 36.6917 38.2958 36.6917L39.4917 35.4292C42.4333 32.3292 42.7125 27.3542 40.1417 23.7209L34.8917 16.2917C31.7083 11.7917 25.5625 11.2 21.9167 15.0375L15.3792 21.9167C13.575 23.8209 12.3667 26.2834 12.5125 29.0209C12.8875 36.0209 15.8792 51.075 32.5625 68.6459C50.2583 87.2709 66.8625 88.0125 73.65 87.3417C75.8 87.1333 77.6667 85.9708 79.1708 84.3875L85.0875 78.1542C89.0875 73.9458 87.9625 66.7375 82.8458 63.7959L74.8875 59.2125C71.5292 57.2834 67.4417 57.85 64.8167 60.6125M55.25 7.83336C55.3158 7.42812 55.4608 7.03981 55.6768 6.69064C55.8927 6.34147 56.1753 6.03826 56.5085 5.79836C56.8417 5.55845 57.2188 5.38654 57.6184 5.29246C58.0181 5.19837 58.4323 5.18395 58.8375 5.25002C58.9417 5.27086 59.2833 5.33336 59.4625 5.37502C59.8208 5.45002 60.3097 5.57502 60.9292 5.75002C62.1667 6.11252 63.8958 6.70836 65.9708 7.65836C70.1208 9.56252 75.6417 12.8917 81.375 18.6209C87.1083 24.3542 90.4375 29.8792 92.3417 34.0292C93.2917 36.1042 93.8833 37.8292 94.2458 39.0709C94.4273 39.695 94.5844 40.3261 94.7167 40.9625L94.7375 41.0917C94.8747 41.9168 94.6821 42.7628 94.2011 43.4472C93.7202 44.1316 92.9895 44.5995 92.1667 44.75C91.3508 44.8825 90.5157 44.6864 89.8441 44.2045C89.1726 43.7227 88.7192 42.9945 88.5833 42.1792C88.4964 41.7191 88.3838 41.2642 88.2458 40.8167C87.82 39.3857 87.2909 37.9876 86.6625 36.6334C85.0375 33.0917 82.1125 28.2 76.9542 23.0417C71.7958 17.8834 66.9083 14.9625 63.3625 13.3375C62.0096 12.7093 60.6129 12.1802 59.1833 11.7542C58.7448 11.631 58.303 11.5199 57.8583 11.4209C57.0404 11.2836 56.3089 10.8309 55.8212 10.16C55.3334 9.48921 55.1283 8.65379 55.25 7.83336Z" fill="white"/>
<path fill-rule="evenodd" clip-rule="evenodd" d="M56.1917 22.2084C56.304 21.8135 56.4931 21.4447 56.748 21.1229C57.0029 20.8011 57.3188 20.5328 57.6775 20.3331C58.0362 20.1334 58.4307 20.0064 58.8385 19.9593C59.2463 19.9121 59.6594 19.9458 60.0542 20.0584L60.0667 20.0625L60.0792 20.0667L60.1125 20.075L60.1958 20.1L60.4292 20.1834C60.6153 20.2472 60.8611 20.3445 61.1667 20.475C61.775 20.7334 62.6042 21.1334 63.625 21.7375C65.6625 22.9459 68.4458 24.9459 71.7167 28.2209C74.9875 31.4917 76.9917 34.275 78.2 36.3125C78.8042 37.3334 79.2042 38.1625 79.4625 38.7709C79.6009 39.0891 79.726 39.413 79.8375 39.7417L79.8583 39.825L79.8708 39.8584V39.8709L79.875 39.875C79.875 39.875 79.875 39.8834 76.875 40.7417L79.875 39.8833C80.0866 40.6718 79.9813 41.5117 79.5816 42.2235C79.1819 42.9353 78.5195 43.4624 77.7362 43.6921C76.9529 43.9218 76.1107 43.8359 75.3899 43.4527C74.6691 43.0696 74.1269 42.4195 73.8792 41.6417L73.8667 41.6L73.7208 41.2334C73.4551 40.6371 73.1546 40.0569 72.8208 39.4959C71.8917 37.9292 70.2125 35.5542 67.2958 32.6375C64.3792 29.7209 62.0083 28.0459 60.4375 27.1167C59.7628 26.7206 59.0611 26.3725 58.3375 26.075L58.2958 26.0584C57.5087 25.8217 56.8465 25.2845 56.4527 24.5631C56.0589 23.8417 55.9651 22.9984 56.1917 22.2084Z" fill="white"/>
</svg>
